<svg width="115" height="115" viewBox="0 0 115 115" fill="none" xmlns="http://www.w3.org/2000/svg">
<g filter="url(#filter0_d_2030_4)">
<path d="M56.8192 2.54136L3.62808 55.8402L3.74287 108.964L56.8704 55.729L109.998 2.49389L56.8192 2.54136Z" fill="#FF7EF2"/>
</g>
<path d="M24.2258 70.059L22.6845 71.626L19.0737 70.7451L20.0142 74.3409L18.4827 75.8979L17.0004 70.2376L11.604 68.916L13.1355 67.359L16.4586 68.173L15.5898 64.8637L17.1213 63.3067L18.5219 68.6707L24.2258 70.059ZM19.9652 63.2104C19.7558 63.4233 19.496 63.5344 19.1859 63.5435C18.8757 63.5395 18.6141 63.4327 18.4012 63.2233C18.1882 63.0139 18.0772 62.7541 18.068 62.444C18.0654 62.1272 18.1688 61.8624 18.3782 61.6494C18.5942 61.4298 18.8573 61.3221 19.1676 61.3261C19.4843 61.3235 19.7492 61.4269 19.9621 61.6363C20.175 61.8458 20.2828 62.1089 20.2854 62.4256C20.2879 62.7292 20.1812 62.9908 19.9652 63.2104ZM24.9263 69.3469L19.9358 64.4382L21.2022 63.1507L26.1927 68.0593L24.9263 69.3469ZM26.2294 58.0397L27.467 59.257L25.9355 60.8141L29.6884 64.5054L28.4219 65.7929L24.6691 62.1016L23.1179 63.6786L21.8803 62.4613L26.2294 58.0397ZM33.8465 50.2955L38.837 55.2042L37.5706 56.4917L33.7878 52.771L31.8342 54.7572L35.6169 58.4779L34.3505 59.7655L29.36 54.8568L33.8465 50.2955ZM37.724 46.0739C38.385 45.4018 39.2041 45.0816 40.1811 45.1131C41.158 45.1314 42.0158 45.5038 42.7544 46.2303C43.493 46.9568 43.8829 47.8116 43.924 48.7946C43.965 49.7644 43.655 50.5854 42.994 51.2574C42.3067 51.9561 41.5337 52.2562 40.6749 52.1577L43.26 54.7004L41.9936 55.9879L35.0069 49.1158L36.2733 47.8283L36.8622 48.4075C36.7495 47.5504 37.0368 46.7726 37.724 46.0739ZM40.1695 50.8947C40.6843 50.8904 41.138 50.6887 41.5307 50.2895C41.9234 49.8902 42.1176 49.4332 42.1133 48.9185C42.109 48.3905 41.9005 47.9236 41.488 47.5179C41.0754 47.1121 40.6085 46.9146 40.0872 46.9255C39.5658 46.9233 39.1087 47.1217 38.716 47.521C38.3233 47.9202 38.1325 48.3805 38.1434 48.9018C38.1476 49.4165 38.356 49.8768 38.7686 50.2826C39.1811 50.6884 39.6481 50.8924 40.1695 50.8947ZM49.7062 42.916C49.7079 43.9258 49.3455 44.8 48.6191 45.5386C47.8926 46.2772 47.0245 46.6539 46.0148 46.6689C45.0051 46.6706 44.1309 46.3083 43.3923 45.5818C42.6537 44.8553 42.2803 43.9905 42.272 42.9874C42.2636 41.9711 42.6226 41.0936 43.3491 40.355C44.0756 39.6164 44.947 39.2429 45.9633 39.2345C46.9729 39.2196 47.8471 39.5753 48.5857 40.3018C49.3243 41.0283 49.6978 41.8997 49.7062 42.916ZM46.0199 44.8869C46.5347 44.8826 46.9818 44.6875 47.3614 44.3016C47.7411 43.9157 47.9287 43.4653 47.9245 42.9506C47.9202 42.4358 47.7185 41.9821 47.3192 41.5894C46.92 41.1967 46.463 41.0025 45.9482 41.0067C45.4335 41.011 44.9863 41.2061 44.6067 41.592C44.2271 41.9779 44.0394 42.4283 44.0437 42.943C44.0545 43.4511 44.2595 43.9015 44.6587 44.2942C45.058 44.6869 45.5117 44.8845 46.0199 44.8869ZM54.9902 36.366L55.6381 35.7072L58.1833 38.2106L56.9463 39.4683L55.6088 38.1527L52.5655 41.2468L53.9029 42.5624L52.6659 43.82L50.1208 41.3166L50.7196 40.7077C50.5752 40.0027 50.1271 39.2804 49.3752 38.5409L47.359 36.5578L51.2074 32.6452L54.9902 36.366ZM52.0744 39.3303L53.7532 37.6236L51.1282 35.0416L49.7538 36.439L50.6121 37.2833C51.3175 37.977 51.8049 38.6594 52.0744 39.3303ZM56.1958 27.5736L57.4622 26.2861L62.4527 31.1947L61.1863 32.4823L60.5974 31.9031C60.7036 32.7668 60.413 33.548 59.7258 34.2466C59.0713 34.912 58.2556 35.2356 57.2787 35.2172C56.3016 35.1857 55.4438 34.8067 54.7052 34.0802C53.9666 33.3538 53.5768 32.5056 53.5358 31.5357C53.4947 30.5527 53.8014 29.7285 54.4558 29.0631C55.1431 28.3644 55.9193 28.061 56.7847 28.1528L56.1958 27.5736ZM57.3726 33.4048C57.8873 33.4005 58.3411 33.1988 58.7338 32.7996C59.1265 32.4003 59.3207 31.9433 59.3164 31.4286C59.3121 30.9006 59.1036 30.4337 58.6911 30.028C58.2785 29.6222 57.8116 29.4247 57.2903 29.4356C56.7689 29.4334 56.3118 29.6318 55.9191 30.0311C55.5264 30.4303 55.3355 30.8906 55.3464 31.4119C55.3507 31.9266 55.5591 32.3869 55.9717 32.7927C56.3842 33.1985 56.8512 33.4025 57.3726 33.4048ZM70.2278 23.29L68.8043 24.7373L65.0665 24.0653L67.3023 26.2644L66.0653 27.522L63.8295 25.3229L64.5632 29.0491L63.1495 30.4863L62.3915 26.206L58.2572 25.4778L59.6709 24.0406L63.2407 24.7437L61.0748 22.6133L62.3118 21.3557L64.4776 23.4861L63.7156 19.9284L65.1391 18.4812L65.9257 22.6128L70.2278 23.29ZM65.9647 16.4439C65.7553 16.6569 65.4955 16.7679 65.1854 16.7771C64.8752 16.7731 64.6136 16.6663 64.4007 16.4569C64.1877 16.2474 64.0767 15.9877 64.0675 15.6775C64.0649 15.3608 64.1683 15.0959 64.3777 14.883C64.5937 14.6634 64.8568 14.5556 65.1671 14.5597C65.4838 14.5571 65.7487 14.6605 65.9616 14.8699C66.1745 15.0793 66.2823 15.3424 66.2849 15.6592C66.2874 15.9628 66.1807 16.2244 65.9647 16.4439ZM70.9258 22.5804L65.9353 17.6718L67.2017 16.3842L72.1922 21.2929L70.9258 22.5804ZM74.3304 14.008C75.0148 13.7648 75.6232 13.9049 76.1555 14.4285C76.5747 14.8409 76.7734 15.3243 76.7516 15.8789C76.7296 16.4203 76.4569 16.9571 75.9333 17.4894L73.3513 20.1144L68.3608 15.2058L70.7464 12.7804C71.2635 12.2547 71.7925 11.9764 72.3334 11.9456C72.8809 11.908 73.3642 12.0954 73.7834 12.5078C74.2226 12.9397 74.4049 13.4398 74.3304 14.008ZM71.6866 13.9408L70.6067 15.0387L71.505 15.9223L72.5849 14.8243C72.9449 14.4584 72.9751 14.1281 72.6757 13.8336C72.3763 13.5391 72.0466 13.5748 71.6866 13.9408ZM74.6981 16.569C75.0646 16.1964 75.0882 15.853 74.7688 15.5389C74.629 15.4014 74.4702 15.3434 74.2922 15.3646C74.1141 15.3859 73.94 15.483 73.7699 15.656L72.5231 16.9236L73.4513 17.8366L74.6981 16.569Z" fill="white"/>
<defs>
<filter id="filter0_d_2030_4" x="0.628113" y="0.493652" width="114.37" height="114.471" filterUnits="userSpaceOnUse" color-interpolation-filters="sRGB">
<feFlood flood-opacity="0" result="BackgroundImageFix"/>
<feColorMatrix in="SourceAlpha" type="matrix" values="0 0 0 0 0 0 0 0 0 0 0 0 0 0 0 0 0 0 127 0" result="hardAlpha"/>
<feOffset dx="1" dy="2"/>
<feGaussianBlur stdDeviation="2"/>
<feComposite in2="hardAlpha" operator="out"/>
<feColorMatrix type="matrix" values="0 0 0 0 0 0 0 0 0 0 0 0 0 0 0 0 0 0 0.13 0"/>
<feBlend mode="normal" in2="BackgroundImageFix" result="effect1_dropShadow_2030_4"/>
<feBlend mode="normal" in="SourceGraphic" in2="effect1_dropShadow_2030_4" result="shape"/>
</filter>
</defs>
</svg>
