<svg width="40" height="40" viewBox="0 0 40 40" fill="none" xmlns="http://www.w3.org/2000/svg">
<circle opacity="0.2" cx="20" cy="20" r="20" fill="white"/>
<g clip-path="url(#clip0_1_1396)">
<path d="M26.3086 13.6911C22.8224 10.2048 17.1791 10.2043 13.6923 13.6911C10.206 17.1774 10.2055 22.8206 13.6923 26.3074C17.1785 29.7937 22.8218 29.7942 26.3086 26.3074C29.7949 22.8211 29.7954 17.1779 26.3086 13.6911ZM25.9357 25.0357C25.5189 24.663 25.073 24.3331 24.6031 24.0489C24.9137 22.9759 25.0977 21.7951 25.1412 20.5678H27.764C27.6455 22.2222 27.0098 23.7741 25.9357 25.0357ZM12.2368 20.5678H14.8596C14.9031 21.7951 15.0871 22.9759 15.3978 24.0489C14.9278 24.3331 14.4819 24.663 14.0651 25.0357C12.9911 23.7741 12.3554 22.2222 12.2368 20.5678ZM14.0652 14.9628C14.482 15.3355 14.9278 15.6654 15.3978 15.9496C15.0872 17.0226 14.9031 18.2034 14.8596 19.4307H12.2368C12.3554 17.7764 12.9911 16.2244 14.0652 14.9628ZM19.4319 16.0671C18.5048 16.0008 17.6108 15.7724 16.782 15.3957C17.264 14.1545 18.1526 12.6658 19.4319 12.2969V16.0671ZM19.4319 17.2063V19.4308H15.9971C16.0365 18.3925 16.1836 17.3955 16.4282 16.4833C17.3701 16.895 18.383 17.1409 19.4319 17.2063ZM19.4319 20.5678V22.7923C18.383 22.8576 17.3701 23.1035 16.4282 23.5153C16.1836 22.603 16.0365 21.606 15.9971 20.5678H19.4319ZM19.4319 23.9314V27.7016C18.1527 27.3327 17.2641 25.8442 16.782 24.6028C17.6108 24.2261 18.5048 23.9977 19.4319 23.9314ZM20.5689 23.9314C21.4961 23.9977 22.3901 24.2261 23.2189 24.6028C22.7368 25.8441 21.8483 27.3327 20.5689 27.7016V23.9314ZM20.5689 22.7923V20.5678H24.0038C23.9644 21.606 23.8173 22.603 23.5726 23.5153C22.6308 23.1035 21.6179 22.8576 20.5689 22.7923ZM20.5689 19.4308V17.2063C21.6179 17.1409 22.6308 16.895 23.5726 16.4833C23.8173 17.3955 23.9644 18.3925 24.0038 19.4308H20.5689ZM20.5689 16.0671V12.2969C21.8483 12.6658 22.7369 14.1545 23.2189 15.3958C22.3901 15.7724 21.4961 16.0008 20.5689 16.0671ZM23.1225 12.8645C23.8502 13.1832 24.5291 13.6153 25.1377 14.1514C24.848 14.4068 24.5423 14.6384 24.2231 14.8456C23.9397 14.1437 23.5776 13.4617 23.1225 12.8645ZM15.7777 14.8456C15.4585 14.6384 15.1529 14.4068 14.8631 14.1514C15.4717 13.6153 16.1507 13.1832 16.8784 12.8645C16.4232 13.4617 16.0611 14.1438 15.7777 14.8456ZM15.7777 25.153C16.0612 25.8548 16.4233 26.5369 16.8784 27.134C16.1507 26.8154 15.4718 26.3833 14.8632 25.8471C15.1529 25.5917 15.4585 25.3601 15.7777 25.153ZM24.2231 25.153C24.5423 25.3601 24.848 25.5917 25.1377 25.8471C24.5291 26.3832 23.8502 26.8153 23.1225 27.134C23.5775 26.5369 23.9397 25.8548 24.2231 25.153ZM25.1413 19.4308C25.0978 18.2034 24.9137 17.0226 24.6031 15.9496C25.0731 15.6654 25.5189 15.3355 25.9357 14.9628C27.0098 16.2244 27.6455 17.7764 27.7641 19.4308H25.1413Z" fill="white"/>
</g>
<defs>
<clipPath id="clip0_1_1396">
<rect width="17.8462" height="17.8462" fill="white" transform="translate(11.077 11.0771)"/>
</clipPath>
</defs>
</svg>
