<svg width="40" height="40" viewBox="0 0 40 40" fill="none" xmlns="http://www.w3.org/2000/svg">
<circle opacity="0.2" cx="20" cy="20" r="20" fill="white"/>
<g clip-path="url(#clip0_1_1402)">
<path d="M18.3337 21.2756H18.6418C21.3303 21.4022 23.1227 22.7653 24.635 22.9221C24.7264 22.9281 24.818 22.9281 24.9094 22.9221C26.5562 22.9221 28.0237 21.4384 28.0237 20.962V12.5787C28.0237 12.446 27.8948 12.4038 27.6652 12.4038C27.1051 12.4038 25.884 12.7174 24.8254 12.7174C24.7022 12.7174 24.5846 12.7174 24.4614 12.7174C23.0611 12.6088 21.2127 11.0769 18.9219 11.0769C17.7888 11.0852 16.6786 11.4205 15.7068 12.0479C15.6071 11.9337 15.4777 11.8545 15.3354 11.8208C15.1932 11.7872 15.0449 11.8005 14.9098 11.8592C14.7748 11.9179 14.6594 12.0191 14.5787 12.1497C14.498 12.2802 14.4559 12.434 14.4578 12.5907V27.355H13.6512C13.4581 27.355 13.2729 27.4376 13.1363 27.5846C12.9998 27.7317 12.9231 27.9311 12.9231 28.139C12.9231 28.347 12.9998 28.5464 13.1363 28.6934C13.2729 28.8405 13.4581 28.9231 13.6512 28.9231H16.659C16.8521 28.9231 17.0373 28.8405 17.1739 28.6934C17.3104 28.5464 17.3871 28.347 17.3871 28.139C17.3871 27.9311 17.3104 27.7317 17.1739 27.5846C17.0373 27.4376 16.8521 27.355 16.659 27.355H15.9141V21.5832C16.7086 21.3913 17.5195 21.2882 18.3337 21.2756ZM15.9141 13.8512C16.737 13.0507 17.8131 12.6192 18.9219 12.645C19.9686 12.7207 20.9918 13.0135 21.9353 13.5075C22.6991 13.9013 23.5156 14.1638 24.3549 14.2855H24.8254C25.4088 14.2739 25.9908 14.2195 26.5674 14.1226V20.5941C26.1116 21.0639 25.5167 21.3458 24.887 21.3902H24.7526C24.1756 21.2794 23.612 21.0994 23.0723 20.8534C21.6696 20.2238 20.1804 19.8469 18.6642 19.7376H18.2945C17.4818 19.7457 16.6717 19.8366 15.8749 20.009L15.9141 13.8512Z" fill="white"/>
</g>
<defs>
<clipPath id="clip0_1_1402">
<rect width="15.1006" height="17.8462" fill="white" transform="translate(12.9231 11.0769)"/>
</clipPath>
</defs>
</svg>
